<svg width="512" height="512" viewBox="0 0 512 512" fill="none" xmlns="http://www.w3.org/2000/svg">
  <rect width="512" height="512" rx="120" fill="#F6EFE6"/>
  <path d="M170 386C197 373 217 350 225 321V167C225 146 214 132 193 125C208 112 229 104 255 104C307 104 344 133 344 178C344 209 323 236 287 249C336 259 368 291 368 337C368 401 319 430 254 430C222 430 194 422 170 407V386Z" fill="#1F1A17"/>
  <path d="M251 150V233H271C305 233 326 213 326 184C326 160 307 150 276 150H251Z" fill="#F6EFE6"/>
  <path d="M251 272V383C260 387 271 389 283 389C322 389 344 370 344 336C344 297 318 272 271 272H251Z" fill="#F6EFE6"/>
  <path d="M195 133C214 116 236 107 264 107C307 107 342 130 342 177C342 208 321 234 285 247C336 255 366 288 366 335C366 396 320 425 259 425C236 425 215 421 195 412" stroke="#8C6A43" stroke-width="10" stroke-linecap="round"/>
</svg>
